<svg xmlns="http://www.w3.org/2000/svg" xmlns:xlink="http://www.w3.org/1999/xlink" viewBox="0 0 194.755 194.756">
<g>
	<path d="M150.563,20.704C125.042-7.064,81.976-5.207,53.34,16.214c-24.41,18.26-41.657,58.806-21.144,86.398   c4.193,5.64,10.337,9.08,17.139,10.477c1.816,0.373,3.275-0.513,3.911-2.221c1.376-3.69,2.844-7.155,3.161-11.106   c0.121-1.507-1.089-2.354-2.346-2.419c-18.604-20.433-5.967-45.861,12.163-61.586c16.029-13.901,45.463-26.927,64.303-10.91   c13.001,11.053,13.992,31.707,13.369,47.312c-0.782,19.571-7.62,40.2-27.939,46.425c-6.69,2.05-14.431,1.236-18.872-4.655   c-5.017-6.655-3.408-14.677-1.507-22.016c2.927-11.3,9.864-27.297,3.294-38.475c-7.954-13.534-23.975-1.228-28.602,7.886   c-2.818,5.551-7.894,23.332-0.403,27.891c-7.96,20.132-13.33,42.256-16.962,63.492c-1.631,9.536-3.133,20.03-1.327,29.649   c0.096,0.51,2.155,7.744,4.215,10.572c-0.321,1.824,2.37,2.483,3.442,1.048c7.329-9.81,14.836-19.206,18.879-30.913   c2.148-6.219,2.946-13.033,4.232-19.469c0.901-4.508,2.746-9.635,3.213-14.439c0.029-0.005,0.056-0.017,0.086-0.021   c6.327,4.861,14.84,8.976,22.358,10.437c11.822,2.297,25.757-2.104,35.413-8.778c1.476-1.021,2.952-2.248,4.375-3.62   c4.463-2.973,8.532-6.83,12.01-11.693C179.807,87.505,173.014,45.134,150.563,20.704z M49.843,101.966   c0.16,0.171,0.328,0.312,0.498,0.436c-0.106,0.236-0.224,0.468-0.335,0.702c-0.24-0.313-0.492-0.617-0.737-0.928   c0.054-0.29,0.049-0.584-0.017-0.88C49.454,101.518,49.635,101.744,49.843,101.966z M37.422,46.551   c-1.871,3.248-3.458,6.59-4.765,10.04c1.038-3.714,2.436-7.308,4.171-10.768c0.252,0.106,0.526,0.173,0.812,0.21   C37.564,46.204,37.496,46.379,37.422,46.551z M151.168,32.688c-0.297-0.385-0.652-0.688-1.042-0.923   c-0.087-0.125-0.196-0.214-0.295-0.324c-0.125-0.421-0.273-0.817-0.408-1.228c1.133,1.455,2.222,2.95,3.232,4.505   C152.175,34.035,151.685,33.357,151.168,32.688z"/>
</g>
</svg>