<svg xmlns="http://www.w3.org/2000/svg" xmlns:xlink="http://www.w3.org/1999/xlink" viewBox="0 0 97.937 97.937">
<g>
	<g>
		<path d="M42.117,0.022c-6.995,0.42-13.626,2.332-19.86,5.498c-3.151,1.599-3.525,3.392-1.647,6.366    c6.502,10.299,13.004,20.597,19.544,30.872c0.683,1.073,1.498,2.123,2.453,2.95c2.367,2.048,5.353,1.168,6.183-1.833    c0.378-1.372,0.365-2.852,0.484-3.878c-0.823-12.203-1.6-23.979-2.419-35.754C46.624,0.942,45.452-0.178,42.117,0.022z"/>
		<path d="M60.41,55.08c0.344-0.049,0.775-0.072,1.188-0.174c6.864-1.708,13.734-3.396,20.583-5.158    c3.014-0.775,3.979-2.483,2.888-5.407c-2.019-5.402-5.175-10.112-9.399-14.036c-2.274-2.113-4.274-1.875-6.114,0.591    c-4.296,5.758-8.53,11.562-12.795,17.342c-1.034,1.4-1.111,2.883-0.308,4.38C57.271,54.141,58.545,55.028,60.41,55.08z"/>
		<path d="M40.762,58.363c0.09-2.102-0.806-3.545-2.843-4.38c-6.446-2.641-12.896-5.272-19.363-7.863    c-3.274-1.312-5.189-0.451-5.968,3c-0.704,3.118-1.132,11.078-0.424,16.727c0.606,2.796,2.313,3.719,5.021,2.881    c6.81-2.104,13.599-4.274,20.39-6.438C39.69,61.613,40.676,60.354,40.762,58.363z"/>
		<path d="M83.524,70.723c-7.013-2.346-14.021-4.7-21.041-7.022c-1.711-0.566-3.19-0.053-4.328,1.31    c-1.189,1.426-1.708,3.087-0.688,4.759c3.974,6.493,7.999,12.954,12.067,19.388c0.983,1.558,2.55,1.891,4.234,1.086    c0.719-0.342,1.41-0.794,2.008-1.318c3.871-3.393,7.028-7.358,9.358-11.956c0.45-0.892,0.673-1.898,1.001-2.853    C86.036,72.305,85.123,71.258,83.524,70.723z"/>
		<path d="M48.922,72.397c-0.01-2.089-0.826-3.312-2.596-4.016c-1.891-0.75-3.649-0.406-4.964,1.142    c-4.693,5.526-9.372,11.064-14.004,16.641c-1.751,2.11-1.568,4.105,0.696,5.659c4.998,3.427,10.57,5.484,16.606,6.082    c2.706,0.267,4.107-1.187,4.137-3.917c0.041-3.599,0.01-7.197,0.01-10.796c0.041,0,0.081,0,0.12,0    C48.927,79.594,48.941,75.995,48.922,72.397z"/>
	</g>
</g>
</svg>